<svg width="138" height="39" xmlns="http://www.w3.org/2000/svg" xmlns:xlink="http://www.w3.org/1999/xlink" xml:space="preserve" overflow="hidden"><defs><clipPath id="clip0"><rect x="445" y="166" width="137" height="37"/></clipPath><clipPath id="clip1"><rect x="445" y="166" width="137" height="37"/></clipPath><clipPath id="clip2"><rect x="445" y="166" width="137" height="37"/></clipPath></defs><g transform="translate(-444 -165)"><g><g clip-path="url(#clip0)"><g clip-path="url(#clip1)"><g clip-path="url(#clip2)"><path d="M35.5556 1.22222 43.7778 1.22222 43.7778 35.7778 35.5556 35.7778Z" fill="#282364" fill-rule="nonzero" fill-opacity="1" transform="matrix(1.01824 0 0 1 445.617 166)"/><path d="M23 23.2222C28.6667 20.7778 29.8889 17 30 12.7778 30 6.77778 25.5556 1.22222 17.1111 1.22222 11.5556 1.22222 5.66667 1.22222 0 1.22222L0 35.7778 8.33333 35.7778 8.33333 24.3333 14.6667 24.3333 22.5556 35.7778 31.4444 35.7778 23 23.2222ZM17.2222 17.8889 8.33333 17.8889 8.33333 7.77778 17.1111 7.77778C20.7778 7.77778 22.2222 10.6667 22.3333 13 22.2222 15.2222 20.7778 17.8889 17.2222 17.8889Z" fill="#282364" fill-rule="nonzero" fill-opacity="1" transform="matrix(1.01824 0 0 1 445.617 166)"/><path d="M114.778 8.66667C120.444 8.66667 125 13.4444 124.667 19.2222 124.333 24.1111 120.333 28 115.556 28.3333 109.778 28.7778 105 24.1111 105 18.4444 104.889 13.1111 109.333 8.66667 114.778 8.66667M114.778 0C104.222 0 95.7778 8.77778 96.3333 19.4444 96.7778 28.8889 104.444 36.6667 114 37.1111 124.667 37.5556 133.444 29.1111 133.444 18.6667 133.333 8.33333 125 0 114.778 0Z" fill="#282364" fill-rule="nonzero" fill-opacity="1" transform="matrix(1.01824 0 0 1 445.617 166)"/><path d="M96.5556 1.22222 88.3333 1.22222 80.7778 22.7778 80.7778 22.6667 74.8889 1.22222 66.5556 1.22222 76.1111 35.7778 84.3333 35.7778Z" fill="#282364" fill-rule="nonzero" fill-opacity="1" transform="matrix(1.01824 0 0 1 445.617 166)"/><path d="M70.4445 22.3333 66.8889 9.44444 62.1111 22.7778 65.6667 35.7778Z" fill="#EC1C24" fill-rule="nonzero" fill-opacity="1" transform="matrix(1.01824 0 0 1 445.617 166)"/><path d="M56.1111 1.22222 47.8889 1.22222 57.4444 35.7778 65.6667 35.7778 62.1111 22.7778Z" fill="#282364" fill-rule="nonzero" fill-opacity="1" transform="matrix(1.01824 0 0 1 445.617 166)"/></g></g></g></g></g></svg>